<?xml version="1.0" encoding="UTF-8"?>
<svg id="Calque_2" data-name="Calque 2" xmlns="http://www.w3.org/2000/svg" viewBox="0 0 557.36 399.58">
  <g id="Calque_1-2" data-name="Calque 1">
    <path d="M379.54,370.36c-29.88-32.15-13.65-76.63-25.83-113.53-5.77-14.77-25.73-18.84-37.67-8.93-8.02,6.22-13.99,15.43-20.34,23.63-28.42,35.54-60.05,85.56-90.93,117.52-17.25,13.58-37.87,9.05-60.63,9.94-36.71-.03-83.27.14-113.5.06-17.9,1.25-38-6.61-27.96-27.74C64.89,279,202.51,112.35,272.94,18.03,285.54,1.49,306.69.4,328.28.12c18.28.15,39.32-.61,57.63.49,18.18.61,32.04,8.39,32.29,28.76.95,15.35.34,37.37.54,54.54.06,19.45-.04,40.01.14,58.39-1.76,29.65,15.17,46.86,44.99,46.67,25.2,3.74,83.11-10.21,91.18,22.14,4.04,50.24,1.62,113.33,1.14,162.16-3.52,30.73-36.45,25.32-61.52,26.12-40.75-.3-87.36,5.3-115.02-28.9l-.13-.15Z"/>
  </g>
</svg>