<?xml version="1.0" encoding="UTF-8"?>
<svg id="Calque_2" data-name="Calque 2" xmlns="http://www.w3.org/2000/svg" viewBox="0 0 235.5 215.8">
  <g id="Calque_1-2" data-name="Calque 1">
    <g id="uuid-c6c31435-ed3e-4277-a62c-b57f8947412f" data-name="Calque 1-2">
      <g>
        <path d="M64.91,74.73c6.99-.15,15.63,1.28,22.27,3.39,37.46,11.93,39.69,55.9,84.53,58.38,10.64.59,28.68-7.39,35.25.48,8.79,10.53-4.68,26-11.59,34.66-35.44,44.43-97.63,54.72-149.17,33.65C-23.77,176.66-11.65,76.45,64.91,74.73Z"/>
        <path d="M149.95,0c28.04-.25,65.42,11.36,79.07,37.97,23.45,45.76-20.9,91.71-67.59,74.1-29.26-11.02-28.65-46.81-64.15-51.68-8.79-1.2-27.2,5.22-30.55-4.59-2.34-6.87,1.83-11.27,5.37-16.35C89.63,14.36,119.54.27,149.95,0Z"/>
      </g>
    </g>
  </g>
</svg>