<?xml version="1.0" encoding="UTF-8"?>
<svg id="Calque_2" data-name="Calque 2" xmlns="http://www.w3.org/2000/svg" viewBox="0 0 177.75 161.28">
  <g id="Calque_1-2" data-name="Calque 1">
    <path d="M31.01,19.67c-2.22-5.23,2.23-13.59,6.44-16.88C40.76.33,44.63.14,50.22.13c26.97.42,61.88-.84,84.44.5,20.13,3.95,26.69,23.96,16.79,41.3-12.62,21.49,8.65,15.02,20.3,34.49,19.85,34.26-13.12,75.75-47.37,83.44-4.42,1.15-8,1.41-12.39,1.41-18.31-.02-69.89.02-98.17,0-6.48-.09-10.9.46-12.73-1.54-3.42-3.58,2.12-20.8,3.06-26.85,4.52-22.77,11.41-30.5,35.54-30.32,7.81-.07,15.62-.28,23.42-.41,9.38.3,21.9-1.79,29.17,5.04,6.01,6.14,5.55,16.65,11.59,23.19,11.35,12.85,31.66,2.23,30.06-14.17-5.11-34.45-50.54-26.52-76.45-27.05-18.85.26-22.72-8.78-18.38-26.08,2.7-13.95,6.28-25.65,22.59-26.76,30.99-2.04,19.6,16.02,32.7,28.79,4.11,3.73,9.65,5.4,14.85,4.32,15.6-3.32,17.84-23.94,7.58-34.31-5.75-6.11-13.32-9.45-21.07-11.13-5.47-1.06-10.25-.89-16.09-.92-10.83-.01-27.91.02-38.13-.02-3.83.09-9.4-.56-10.48-3.29l-.05-.09Z"/>
  </g>
</svg>