<?xml version="1.0" encoding="UTF-8"?>
<svg id="Calque_2" data-name="Calque 2" xmlns="http://www.w3.org/2000/svg" viewBox="0 0 978.27 256.19">
  <g id="Calque_1-2" data-name="Calque 1">
    <g>
      <path d="M237.77,111.9c9.36-1.11,17.08,5.78,18,14.42s-5.5,17.03-14.53,18-16.73-5.41-17.84-14.1,4.92-17.21,14.36-18.33Z"/>
      <path d="M124.38.4c9.33-2.02,17.8,3.91,19.56,12.83s-3.87,17.15-12.57,19.03-17.32-3.53-19.35-12.43c-1.91-8.39,3.17-17.43,12.36-19.42Z"/>
      <path d="M15.07,111.83c9.37-.68,16.86,6.47,17.47,15.06.65,9.08-6.15,16.71-15,17.45S.91,138.45.08,129.75s5.53-17.23,14.99-17.92Z"/>
      <path d="M124.89,223.87c9.36-1.72,17.54,4.48,19.09,13.37s-4.28,17.04-12.97,18.67c-8.8,1.65-17.43-4.07-19.1-12.96s3.82-17.38,12.99-19.07Z"/>
      <path d="M182.36,14.85c9.35-.73,16.73,6.5,17.4,15.06.71,9.14-6.11,16.67-14.96,17.43s-16.67-5.94-17.47-14.6,5.51-17.16,15.04-17.9Z"/>
      <path d="M28.53,56.35c9.37-1.47,17.42,5,18.65,13.84s-4.77,16.95-13.49,18.32-17.25-4.49-18.72-13.55c-1.38-8.47,4.3-17.15,13.56-18.6Z"/>
      <path d="M71,208.86c9.42-.81,16.91,6.25,17.57,14.98s-5.97,16.78-15.02,17.51c-8.69.7-16.52-5.87-17.39-14.62-.88-8.93,5.38-17.06,14.84-17.87Z"/>
      <path d="M221.31,167.85c9.31-1.99,17.74,3.98,19.49,12.88s-3.9,17.09-12.65,18.96c-8.65,1.85-17.3-3.53-19.24-12.38s3.15-17.49,12.4-19.46Z"/>
      <path d="M214.79,142.35c5.48-1.11,10.08,2.46,11.08,7.47s-2.4,9.92-7.22,10.97-9.83-2.13-11.07-6.77c-1.39-5.19,1.64-10.54,7.21-11.66Z"/>
      <path d="M150.9,31.36c5.34-1.19,10.2,2.42,11.15,7.33s-2.22,9.9-7.26,11.05-9.7-2.01-11.05-6.79c-1.42-5.03,1.56-10.33,7.17-11.59Z"/>
      <path d="M70.49,23.38c5.33-1.18,10.14,2.54,11.06,7.4s-2.18,9.89-7.17,10.97-9.89-2.02-11.11-6.7c-1.35-5.16,1.61-10.43,7.22-11.67Z"/>
      <path d="M27.54,174.37c5.46-1.51,10.29,1.83,11.64,6.78s-1.71,10.09-6.5,11.28c-5.16,1.28-10.18-1.29-11.7-6.49-1.33-4.55,1.29-10.12,6.56-11.58Z"/>
      <path d="M39.51,95.34c5.42-1.46,10.36,1.92,11.59,6.94s-1.81,9.87-6.49,11.1c-5.25,1.38-10.25-1.34-11.71-6.39s1.2-10.2,6.61-11.66Z"/>
      <path d="M177.81,216.88c5.51-1.68,10.47,1.35,11.97,6.46,1.37,4.68-1.38,9.8-6.08,11.36-5.01,1.67-10.15-.96-11.85-5.84s.69-10.38,5.96-11.98Z"/>
      <path d="M103.47,206.32c5.31-1.4,10.12,2.06,11.32,6.65,1.36,5.21-1.72,10.27-6.63,11.51s-9.95-1.49-11.42-6.4,1.27-10.33,6.73-11.77Z"/>
      <path d="M220.34,65.92c5.29-1.59,10.21,1.54,11.67,6.3s-1.4,10.22-6.21,11.66-10.03-1.12-11.66-5.9.8-10.45,6.2-12.07Z"/>
      <path d="M152.36,215.82c4.48-1.32,8.5,1.18,9.64,5.37,1,3.71-1.17,7.84-5.15,9.06s-8.07-.85-9.4-4.92c-1.18-3.62.61-8.23,4.91-9.51Z"/>
      <path d="M99.91,26.85c4.46-.32,7.84,3.23,8.07,7,.27,4.25-2.99,7.78-6.85,8.07-4.33.32-7.8-2.64-8.18-6.67s2.45-8.07,6.96-8.4Z"/>
      <path d="M197.81,192.87c3.73-.33,6.27,2.62,6.51,5.55.29,3.59-2.41,6.17-5.37,6.59-3.59.51-6.38-2.22-6.71-5.17-.41-3.59,1.79-6.63,5.58-6.97Z"/>
      <path d="M8.57,89.34c3.64-.75,6.63,1.97,7.08,4.99.51,3.44-1.48,6.44-4.93,7.07-3.08.57-6.23-1.55-6.98-4.7s1.16-6.61,4.83-7.36Z"/>
      <path d="M245.31,154.79c3.6-.59,6.48,2.26,6.9,5.13.52,3.51-1.95,6.35-4.97,6.95-3.41.67-6.43-1.72-6.96-4.63-.65-3.55,1.18-6.8,5.04-7.44Z"/>
      <path d="M83.95,6.95c3.35-1.38,6.85.24,8.09,3.21s-.09,6.56-3.2,7.94c-2.92,1.3-6.44.12-7.85-2.82s-.57-6.88,2.95-8.33Z"/>
      <path d="M225.3,93.36c3.44-1.17,6.65.84,7.69,3.75,1.17,3.26-.62,6.69-3.71,7.74s-6.44-.34-7.62-3.33c-1.24-3.15.06-6.94,3.64-8.16Z"/>
      <path d="M36.09,206.38c3.36-1.23,6.69.74,7.71,3.68,1.14,3.28-.38,6.75-3.7,7.82-3.01.97-6.4-.35-7.64-3.42s.02-6.76,3.63-8.08Z"/>
      <path d="M57.48,50.82c3.75-1.16,6.74,1.01,7.74,4.37.87,2.92-1.01,6.31-4.07,7.23-3.25.98-6.53-.65-7.68-3.98-.97-2.82.51-6.53,4.02-7.61Z"/>
      <path d="M190.3,50.34c3.65-1.06,6.87,1.05,7.75,4.3.82,3.02-.98,6.35-4.1,7.29s-6.5-.62-7.67-4.03c-.93-2.74.48-6.52,4.02-7.56Z"/>
      <path d="M167.34,237.93c3.47-1.25,6.74.62,7.78,3.63,1.11,3.21-.31,6.75-3.67,7.83-2.97.95-6.36-.28-7.65-3.4-1.19-2.89-.05-6.76,3.54-8.06Z"/>
      <path d="M211.34,34.89c3.49-1.36,6.9.47,8.09,3.74,1.02,2.81-.55,6.4-3.66,7.6-2.91,1.12-6.5-.23-7.81-3.43-1.13-2.75-.03-6.58,3.39-7.91Z"/>
      <path d="M157.57,2.75c3.32-.84,6.34,1.35,7.2,4.27.97,3.29-1.09,6.77-4.16,7.52-3.57.87-6.63-.87-7.58-4.35-.86-3.15,1.04-6.56,4.54-7.44Z"/>
      <path d="M27.5,152.37c3.76-.74,6.63,1.83,7.12,4.96.53,3.37-1.58,6.34-5.01,6.98-3.09.58-6.12-1.45-6.91-4.65s1.22-6.6,4.8-7.3Z"/>
      <path d="M57.56,194.36c3.49-1.37,6.88.58,7.94,3.87.95,2.95-.55,6.33-3.64,7.49s-6.52-.3-7.84-3.43c-1.2-2.84.11-6.58,3.54-7.93Z"/>
      <path d="M93.93,240.45c3.44-1.4,6.88.21,8.09,3.27s-.18,6.54-3.27,7.9c-2.93,1.3-6.34.04-7.8-2.78s-.5-6.97,2.98-8.39Z"/>
      <path d="M10.14,167.36c2.83-.81,5.47,1.24,6.15,3.72.72,2.62-1.04,5.5-3.72,6.16s-5.2-.77-6.05-3.35.42-5.63,3.61-6.54Z"/>
      <path d="M44.02,46.87c2.87-1.14,5.73.25,6.68,2.65,1.04,2.65-.16,5.61-2.81,6.72-2.31.97-5.27-.06-6.39-2.3-1.27-2.52-.41-5.91,2.52-7.07Z"/>
      <path d="M195.87,210.99c2.79-1.31,5.78-.21,6.98,2.25s.2,5.38-2.31,6.74c-2.23,1.21-5.25.39-6.58-1.74-1.48-2.37-.92-5.92,1.91-7.25Z"/>
      <path d="M241.95,75.26c2.86-.93,5.62.46,6.53,3.38.72,2.29-.5,5.15-3.14,6.14s-5.38-.16-6.51-3.02c-.92-2.33.17-5.55,3.12-6.5Z"/>
      <path d="M101.98,3.9c1.93-.66,3.75.72,4.25,2.18.65,1.89-.29,3.85-2.13,4.4-1.74.51-3.44-.25-4.27-1.99-.72-1.5-.13-3.81,2.15-4.59Z"/>
      <path d="M8.78,148.25c1.73-.53,3.69.58,4.17,2.13.6,1.95-.15,3.79-2.32,4.48-1.53.49-3.56-.3-4.19-2.31-.5-1.59.27-3.67,2.34-4.3Z"/>
      <path d="M45.12,33.91c1.82-.87,3.78.28,4.52,1.82s-.12,3.66-1.76,4.48c-1.5.75-3.49-.02-4.33-1.34-1.04-1.63-.53-3.95,1.57-4.96Z"/>
      <path d="M44.6,187.91c1.89-.92,3.8.14,4.59,1.79.75,1.54-.02,3.63-1.75,4.45-1.49.7-3.46.07-4.36-1.36-.97-1.54-.55-3.87,1.53-4.88Z"/>
      <path d="M206.5,58.77c1.92-.6,3.79.52,4.23,2.14.53,1.93-.24,3.65-2.05,4.39-1.55.63-3.66-.19-4.19-1.6-.79-2.1-.15-4.25,2.01-4.93Z"/>
      <path d="M151.45,242.91c1.81-.96,3.82.06,4.6,1.66s.12,3.68-1.87,4.59c-1.31.6-3.23.1-4.21-1.38s-.55-3.79,1.48-4.87Z"/>
      <path d="M212.46,212.23c1.89-.64,3.88.26,4.34,2.08.44,1.73,0,3.65-2.1,4.37-1.28.45-3.43-.24-4.08-1.6-.94-1.97-.25-4.15,1.84-4.86Z"/>
      <path d="M242.82,101.43c1.8-.91,3.9-.23,4.63,1.2.84,1.65.37,3.86-1.18,4.71s-3.61.41-4.52-.93c-.99-1.45-.92-3.96,1.08-4.97Z"/>
    </g>
    <g>
      <path d="M450.1,177.59c-14.86,14.93-33,22.4-54.41,22.4s-39.52-7.47-54.31-22.4c-14.79-14.93-22.19-33.03-22.19-54.31s7.4-39.55,22.19-54.41c14.79-14.86,32.89-22.29,54.31-22.29s39.55,7.43,54.41,22.29c14.86,14.86,22.29,33,22.29,54.41s-7.43,39.38-22.29,54.31ZM355.01,164.17c10.92,11.06,24.48,16.59,40.68,16.59s29.76-5.53,40.68-16.59c10.92-11.06,16.38-24.69,16.38-40.89s-5.46-30.04-16.38-41.1c-10.92-11.06-24.48-16.59-40.68-16.59s-29.76,5.53-40.68,16.59c-10.92,11.06-16.38,24.76-16.38,41.1s5.46,29.83,16.38,40.89Z"/>
      <path d="M581.64,49.32h18.38v147.92h-18.38v-18.17c-9.16,13.95-22.47,20.92-39.94,20.92-14.79,0-27.4-5.39-37.82-16.17-10.43-10.78-15.64-23.91-15.64-39.41s5.21-28.63,15.64-39.41c10.42-10.78,23.03-16.17,37.82-16.17,17.47,0,30.78,6.97,39.94,20.92v-60.44ZM544.02,182.24c10.7,0,19.65-3.63,26.84-10.88,7.19-7.25,10.78-16.24,10.78-26.94s-3.59-19.68-10.78-26.94c-7.18-7.25-16.13-10.88-26.84-10.88s-19.44,3.63-26.63,10.88c-7.18,7.26-10.78,16.24-10.78,26.94s3.59,19.69,10.78,26.94c7.19,7.26,16.06,10.88,26.63,10.88Z"/>
      <path d="M701.66,91.59h19.65l-43.11,112.21c-4.51,11.97-10.81,21.09-18.91,27.37-8.1,6.27-17.43,9.05-28,8.35v-17.12c12.91.98,22.38-6.21,28.41-21.6l2.02-3.97-46.07-105.23h19.65l35.23,81,31.12-81Z"/>
      <path d="M746.04,119.8c0,4,2.07,7.2,6.22,9.61,4.15,2.41,9.09,4.46,14.83,6.14,5.74,1.69,11.51,3.38,17.32,5.09,5.81,1.71,10.72,4.9,14.75,9.59,4.03,4.69,6.04,10.71,6.04,18.06,0,9.58-3.7,17.26-11.09,23.03-7.4,5.78-16.87,8.66-28.42,8.66-10.29,0-19.09-2.26-26.41-6.76-7.33-4.51-12.54-10.49-15.64-17.96l15.85-9.09c1.69,5.07,4.86,9.09,9.51,12.05,4.65,2.96,10.21,4.44,16.69,4.44,6.06,0,11.06-1.16,15-3.48,3.94-2.32,5.92-5.94,5.92-10.87,0-4.08-2.05-7.35-6.14-9.81-4.09-2.46-9.01-4.55-14.75-6.28-5.74-1.72-11.52-3.46-17.32-5.2-5.81-1.74-10.75-4.87-14.84-9.38-4.09-4.51-6.13-10.28-6.13-17.33,0-9.16,3.56-16.69,10.67-22.61,7.11-5.92,16.02-8.88,26.73-8.88,8.59,0,16.23,1.94,22.93,5.81,6.69,3.88,11.73,9.27,15.11,16.17l-15.43,8.66c-3.8-9.01-11.34-13.52-22.61-13.52-5.21,0-9.65,1.21-13.31,3.62-3.67,2.41-5.49,5.82-5.49,10.23Z"/>
      <path d="M835.21,72.36c-3.52,0-6.48-1.2-8.87-3.59-2.4-2.39-3.59-5.28-3.59-8.66s1.2-6.3,3.59-8.77c2.39-2.46,5.35-3.7,8.87-3.7s6.27,1.23,8.66,3.7c2.39,2.47,3.59,5.39,3.59,8.77s-1.2,6.27-3.59,8.66-5.28,3.59-8.66,3.59ZM825.92,197.24v-105.66h18.38v105.66h-18.38Z"/>
      <path d="M959.89,91.59h18.38v105.66h-18.38v-18.17c-9.16,13.95-22.47,20.92-39.94,20.92-14.79,0-27.4-5.39-37.82-16.17-10.43-10.78-15.64-23.91-15.64-39.41s5.21-28.63,15.64-39.41c10.42-10.78,23.03-16.17,37.82-16.17,17.47,0,30.78,6.97,39.94,20.92v-18.17ZM922.27,182.24c10.7,0,19.65-3.63,26.84-10.88,7.19-7.25,10.78-16.24,10.78-26.94s-3.59-19.68-10.78-26.94c-7.18-7.25-16.13-10.88-26.84-10.88s-19.44,3.63-26.63,10.88c-7.18,7.26-10.78,16.24-10.78,26.94s3.59,19.69,10.78,26.94c7.19,7.26,16.06,10.88,26.63,10.88Z"/>
    </g>
  </g>
</svg>