<?xml version="1.0" encoding="UTF-8"?>
<svg id="Calque_2" data-name="Calque 2" xmlns="http://www.w3.org/2000/svg" viewBox="0 0 397.94 524.44">
  <g id="Calque_1-2" data-name="Calque 1">
    <g>
      <path d="M79.04,486.99c-8.97,9.02-19.93,13.52-32.85,13.52s-23.86-4.51-32.79-13.52c-8.93-9.02-13.4-19.95-13.4-32.79s4.47-23.88,13.4-32.85c8.93-8.97,19.86-13.46,32.79-13.46s23.88,4.49,32.85,13.46c8.97,8.97,13.46,19.93,13.46,32.85s-4.49,23.77-13.46,32.79ZM21.63,478.89c6.59,6.68,14.78,10.02,24.56,10.02s17.97-3.34,24.56-10.02c6.59-6.68,9.89-14.91,9.89-24.69s-3.3-18.14-9.89-24.82c-6.59-6.68-14.78-10.02-24.56-10.02s-17.97,3.34-24.56,10.02c-6.59,6.68-9.89,14.95-9.89,24.82s3.3,18.01,9.89,24.69Z"/>
      <path d="M158.46,409.55h11.1v89.31h-11.1v-10.97c-5.53,8.42-13.57,12.63-24.11,12.63-8.93,0-16.54-3.25-22.84-9.76-6.3-6.51-9.44-14.44-9.44-23.8s3.15-17.29,9.44-23.79c6.29-6.51,13.91-9.76,22.84-9.76,10.55,0,18.58,4.21,24.11,12.63v-36.49ZM135.75,489.8c6.46,0,11.87-2.19,16.2-6.57,4.34-4.38,6.51-9.8,6.51-16.27s-2.17-11.88-6.51-16.27c-4.34-4.38-9.74-6.57-16.2-6.57s-11.74,2.19-16.08,6.57c-4.34,4.38-6.51,9.8-6.51,16.27s2.17,11.89,6.51,16.27c4.34,4.38,9.7,6.57,16.08,6.57Z"/>
      <path d="M230.93,435.06h11.87l-26.03,67.75c-2.72,7.23-6.53,12.74-11.42,16.52-4.89,3.78-10.52,5.46-16.9,5.04v-10.33c7.79.59,13.51-3.75,17.15-13.04l1.22-2.4-27.81-63.54h11.87l21.27,48.9,18.79-48.9Z"/>
      <path d="M257.72,452.1c0,2.41,1.25,4.35,3.76,5.8,2.5,1.46,5.49,2.69,8.96,3.71,3.46,1.02,6.95,2.04,10.46,3.07,3.51,1.03,6.48,2.96,8.9,5.79,2.43,2.83,3.65,6.47,3.65,10.9,0,5.79-2.23,10.42-6.7,13.91-4.47,3.49-10.19,5.23-17.16,5.23-6.21,0-11.53-1.36-15.95-4.08-4.42-2.72-7.57-6.34-9.44-10.85l9.57-5.49c1.02,3.06,2.93,5.49,5.74,7.27,2.81,1.79,6.17,2.68,10.08,2.68,3.66,0,6.68-.7,9.06-2.1,2.38-1.4,3.57-3.59,3.57-6.56,0-2.46-1.24-4.44-3.7-5.92-2.47-1.49-5.44-2.75-8.9-3.79-3.47-1.04-6.95-2.09-10.46-3.14-3.51-1.05-6.49-2.94-8.96-5.66-2.47-2.72-3.7-6.21-3.7-10.46,0-5.53,2.15-10.08,6.44-13.65,4.29-3.57,9.67-5.36,16.14-5.36,5.19,0,9.8,1.17,13.84,3.51,4.04,2.34,7.08,5.59,9.12,9.76l-9.31,5.23c-2.3-5.44-6.85-8.17-13.65-8.17-3.15,0-5.83.73-8.04,2.18-2.21,1.46-3.32,3.51-3.32,6.18Z"/>
      <path d="M311.56,423.45c-2.13,0-3.91-.72-5.36-2.17-1.45-1.45-2.17-3.19-2.17-5.23s.72-3.81,2.17-5.29c1.45-1.49,3.23-2.23,5.36-2.23s3.78.75,5.23,2.23c1.45,1.49,2.17,3.25,2.17,5.29s-.72,3.79-2.17,5.23-3.19,2.17-5.23,2.17ZM305.95,498.86v-63.79h11.1v63.79h-11.1Z"/>
      <path d="M386.84,435.06h11.1v63.79h-11.1v-10.97c-5.53,8.42-13.57,12.63-24.11,12.63-8.93,0-16.54-3.25-22.84-9.76-6.3-6.51-9.44-14.44-9.44-23.8s3.15-17.29,9.44-23.79c6.29-6.51,13.91-9.76,22.84-9.76,10.55,0,18.58,4.21,24.11,12.63v-10.97ZM364.13,489.8c6.46,0,11.87-2.19,16.2-6.57,4.34-4.38,6.51-9.8,6.51-16.27s-2.17-11.88-6.51-16.27c-4.34-4.38-9.74-6.57-16.2-6.57s-11.74,2.19-16.08,6.57c-4.34,4.38-6.51,9.8-6.51,16.27s2.17,11.89,6.51,16.27c4.34,4.38,9.7,6.57,16.08,6.57Z"/>
    </g>
    <g>
      <path d="M351.76,155.66c13.02-1.55,23.76,8.04,25.04,20.06,1.35,12.6-7.65,23.69-20.21,25.04s-23.27-7.53-24.81-19.61c-1.57-12.31,6.84-23.93,19.98-25.49Z"/>
      <path d="M194.04.55c12.98-2.81,24.76,5.45,27.21,17.85,2.33,11.81-5.39,23.85-17.49,26.47-12.07,2.61-24.1-4.91-26.91-17.29-2.65-11.67,4.41-24.25,17.19-27.02Z"/>
      <path d="M41.98,155.56c13.03-.95,23.45,9,24.31,20.95.91,12.62-8.56,23.24-20.86,24.27s-23.13-8.19-24.29-20.3c-1.2-12.48,7.69-23.97,20.85-24.93Z"/>
      <path d="M194.75,311.4c13.02-2.4,24.4,6.23,26.55,18.59,2.09,12-5.96,23.71-18.05,25.97-12.25,2.29-24.24-5.66-26.57-18.03-2.22-11.78,5.31-24.18,18.07-26.53Z"/>
      <path d="M274.69,20.66c13.01-1.01,23.28,9.05,24.2,20.95.99,12.71-8.5,23.19-20.81,24.25s-23.18-8.27-24.3-20.31c-1.17-12.58,7.67-23.87,20.91-24.9Z"/>
      <path d="M60.72,78.38c13.03-2.04,24.23,6.95,25.95,19.25s-6.64,23.58-18.77,25.48c-12.46,1.95-23.99-6.25-26.04-18.85-1.92-11.78,5.99-23.86,18.86-25.88Z"/>
      <path d="M119.78,290.53c13.11-1.12,23.53,8.7,24.43,20.84.94,12.55-8.31,23.35-20.9,24.35-12.09.97-22.98-8.17-24.18-20.34-1.23-12.43,7.49-23.73,20.65-24.85Z"/>
      <path d="M328.87,233.48c12.95-2.76,24.68,5.54,27.11,17.92,2.34,11.9-5.43,23.77-17.6,26.37-12.04,2.57-24.06-4.91-26.76-17.21-2.61-11.89,4.39-24.33,17.24-27.07Z"/>
      <path d="M319.8,198.01c7.63-1.54,14.03,3.42,15.41,10.4,1.35,6.82-3.35,13.8-10.04,15.25s-13.68-2.97-15.41-9.42c-1.93-7.22,2.28-14.66,10.03-16.22Z"/>
      <path d="M230.92,43.62c7.43-1.66,14.19,3.36,15.5,10.19,1.34,6.98-3.09,13.77-10.1,15.37s-13.49-2.79-15.37-9.45c-1.98-6.99,2.17-14.37,9.97-16.12Z"/>
      <path d="M119.08,32.52c7.41-1.64,14.1,3.53,15.38,10.3,1.35,7.08-3.04,13.75-9.97,15.26s-13.76-2.81-15.46-9.32c-1.87-7.18,2.23-14.51,10.05-16.24Z"/>
      <path d="M59.33,242.55c7.6-2.1,14.31,2.55,16.19,9.44,1.84,6.72-2.38,14.04-9.05,15.69-7.18,1.78-14.15-1.79-16.27-9.02-1.85-6.33,1.79-14.08,9.12-16.11Z"/>
      <path d="M75.98,132.62c7.53-2.03,14.41,2.67,16.12,9.66,1.62,6.64-2.52,13.73-9.03,15.44-7.3,1.92-14.26-1.87-16.28-8.88-1.93-6.7,1.67-14.19,9.2-16.22Z"/>
      <path d="M268.37,301.68c7.67-2.33,14.57,1.88,16.65,8.98,1.91,6.52-1.92,13.63-8.46,15.81-6.96,2.32-14.11-1.34-16.49-8.12s.96-14.44,8.29-16.67Z"/>
      <path d="M164.95,287c7.39-1.95,14.08,2.86,15.75,9.26,1.9,7.25-2.39,14.28-9.23,16.02s-13.84-2.08-15.89-8.9,1.77-14.37,9.37-16.38Z"/>
      <path d="M327.52,91.69c7.36-2.21,14.2,2.14,16.23,8.77s-1.94,14.22-8.63,16.22-13.95-1.55-16.22-8.2c-2.31-6.78,1.12-14.54,8.62-16.79Z"/>
      <path d="M232.95,300.21c6.23-1.84,11.83,1.64,13.41,7.47,1.4,5.16-1.62,10.9-7.16,12.6s-11.23-1.19-13.07-6.84c-1.64-5.04.85-11.45,6.83-13.22Z"/>
      <path d="M160.01,37.35c6.2-.45,10.9,4.49,11.23,9.74.37,5.91-4.16,10.82-9.53,11.22-6.02.45-10.85-3.67-11.38-9.28s3.41-11.23,9.69-11.68Z"/>
      <path d="M296.18,268.29c5.19-.47,8.72,3.64,9.05,7.72.41,4.99-3.36,8.59-7.48,9.17-4.99.71-8.87-3.09-9.34-7.19-.57-5,2.48-9.22,7.76-9.7Z"/>
      <path d="M32.94,124.27c5.06-1.04,9.23,2.74,9.85,6.94.71,4.79-2.05,8.96-6.86,9.84-4.29.79-8.66-2.16-9.71-6.54-1.03-4.33,1.61-9.19,6.72-10.24Z"/>
      <path d="M362.25,215.32c5.01-.83,9.01,3.15,9.6,7.13.72,4.88-2.71,8.84-6.92,9.66-4.75.93-8.94-2.39-9.69-6.45-.91-4.93,1.65-9.47,7-10.35Z"/>
      <path d="M137.8,9.67c4.65-1.92,9.53.34,11.25,4.47s-.13,9.12-4.45,11.04c-4.06,1.81-8.96.16-10.91-3.93s-.8-9.57,4.11-11.59Z"/>
      <path d="M334.42,129.87c4.79-1.62,9.25,1.17,10.7,5.21,1.63,4.54-.86,9.31-5.17,10.77s-8.96-.47-10.6-4.63c-1.73-4.39.08-9.66,5.07-11.35Z"/>
      <path d="M71.22,287.08c4.67-1.71,9.31,1.03,10.73,5.11,1.58,4.56-.53,9.39-5.15,10.88-4.19,1.34-8.91-.48-10.63-4.75-1.69-4.18.03-9.4,5.05-11.24Z"/>
      <path d="M100.98,70.69c5.21-1.61,9.37,1.4,10.76,6.07,1.21,4.06-1.41,8.77-5.67,10.06-4.52,1.36-9.08-.91-10.69-5.54-1.36-3.92.71-9.08,5.59-10.59Z"/>
      <path d="M285.73,70.02c5.07-1.48,9.56,1.46,10.79,5.98,1.14,4.2-1.36,8.84-5.71,10.15s-9.05-.86-10.67-5.61c-1.3-3.81.66-9.08,5.59-10.51Z"/>
      <path d="M253.8,330.96c4.82-1.74,9.38.86,10.83,5.05,1.54,4.46-.43,9.39-5.11,10.89-4.13,1.32-8.85-.39-10.64-4.72-1.65-4.02-.07-9.41,4.92-11.21Z"/>
      <path d="M315,48.53c4.85-1.89,9.6.66,11.25,5.2,1.43,3.91-.76,8.91-5.1,10.57-4.05,1.56-9.04-.32-10.86-4.77-1.57-3.83-.04-9.15,4.71-11Z"/>
      <path d="M240.2,3.83c4.62-1.16,8.82,1.88,10.01,5.94,1.35,4.58-1.52,9.42-5.79,10.46-4.96,1.21-9.22-1.21-10.55-6.05-1.2-4.38,1.45-9.12,6.32-10.35Z"/>
      <path d="M59.28,211.94c5.23-1.03,9.22,2.54,9.9,6.9.74,4.69-2.2,8.82-6.97,9.71-4.3.8-8.52-2.02-9.61-6.46-1.05-4.3,1.7-9.18,6.68-10.15Z"/>
      <path d="M101.1,270.36c4.85-1.91,9.57.81,11.05,5.39,1.33,4.11-.77,8.81-5.07,10.42s-9.07-.42-10.91-4.77c-1.67-3.95.15-9.15,4.93-11.03Z"/>
      <path d="M151.68,334.46c4.79-1.95,9.57.29,11.25,4.55s-.25,9.09-4.54,10.99c-4.07,1.8-8.82.06-10.85-3.87-2.13-4.12-.69-9.7,4.15-11.67Z"/>
      <path d="M35.13,232.8c3.94-1.12,7.61,1.72,8.55,5.18,1,3.64-1.45,7.65-5.17,8.57s-7.24-1.07-8.41-4.65c-1.17-3.57.59-7.83,5.03-9.09Z"/>
      <path d="M82.25,65.19c4-1.58,7.97.35,9.29,3.69,1.45,3.68-.22,7.81-3.9,9.35-3.21,1.34-7.33-.09-8.9-3.2-1.77-3.51-.56-8.22,3.51-9.84Z"/>
      <path d="M293.48,293.48c3.88-1.82,8.04-.29,9.7,3.13s.27,7.48-3.21,9.38c-3.1,1.69-7.31.54-9.16-2.43-2.05-3.3-1.27-8.24,2.66-10.08Z"/>
      <path d="M357.57,104.69c3.98-1.29,7.81.63,9.09,4.7,1,3.18-.7,7.16-4.37,8.55s-7.48-.22-9.05-4.2c-1.28-3.24.23-7.72,4.34-9.05Z"/>
      <path d="M162.88,5.42c2.68-.91,5.22,1.01,5.92,3.04.91,2.63-.41,5.36-2.96,6.11-2.42.71-4.79-.34-5.94-2.77-1-2.09-.18-5.3,2.99-6.38Z"/>
      <path d="M33.24,206.22c2.41-.73,5.14.8,5.8,2.96.83,2.71-.21,5.27-3.22,6.24-2.12.68-4.95-.41-5.83-3.22-.69-2.21.37-5.1,3.26-5.98Z"/>
      <path d="M83.79,47.17c2.54-1.21,5.25.39,6.29,2.53s-.17,5.09-2.44,6.23c-2.09,1.05-4.85-.03-6.02-1.87-1.45-2.27-.74-5.5,2.18-6.9Z"/>
      <path d="M83.06,261.38c2.63-1.28,5.28.2,6.39,2.49,1.04,2.15-.03,5.05-2.44,6.19-2.08.98-4.81.1-6.07-1.89-1.36-2.15-.76-5.39,2.12-6.79Z"/>
      <path d="M308.27,81.75c2.66-.83,5.27.73,5.88,2.98.73,2.69-.33,5.07-2.85,6.1-2.16.88-5.09-.27-5.83-2.23-1.09-2.92-.2-5.91,2.79-6.85Z"/>
      <path d="M231.69,337.89c2.52-1.34,5.31.08,6.4,2.31s.17,5.12-2.6,6.38c-1.83.83-4.49.14-5.85-1.92s-.76-5.28,2.06-6.78Z"/>
      <path d="M316.56,295.22c2.63-.89,5.39.36,6.04,2.9.61,2.4,0,5.07-2.92,6.09-1.79.62-4.77-.34-5.67-2.23-1.31-2.74-.35-5.77,2.55-6.76Z"/>
      <path d="M358.79,141.09c2.5-1.27,5.43-.32,6.43,1.67,1.17,2.3.52,5.36-1.65,6.55s-5.02.57-6.29-1.3c-1.37-2.01-1.28-5.5,1.5-6.92Z"/>
    </g>
  </g>
</svg>