<?xml version="1.0" encoding="UTF-8"?>
<svg id="Calque_2" data-name="Calque 2" xmlns="http://www.w3.org/2000/svg" viewBox="0 0 659.08 193.03">
  <g id="Calque_1-2" data-name="Calque 1">
    <g>
      <path d="M130.91,131.01c-14.86,14.93-33,22.4-54.41,22.4s-39.52-7.47-54.31-22.4C7.4,116.08,0,97.98,0,76.71S7.4,37.16,22.19,22.29C36.98,7.43,55.08,0,76.5,0s39.55,7.43,54.41,22.29c14.86,14.86,22.29,33,22.29,54.41s-7.43,39.38-22.29,54.31ZM35.82,117.6c10.92,11.06,24.48,16.59,40.68,16.59s29.76-5.53,40.68-16.59c10.92-11.06,16.38-24.69,16.38-40.89s-5.46-30.04-16.38-41.1c-10.92-11.06-24.48-16.59-40.68-16.59s-29.76,5.53-40.68,16.59c-10.92,11.06-16.38,24.76-16.38,41.1s5.46,29.83,16.38,40.89Z"/>
      <path d="M262.45,2.75h18.38v147.92h-18.38v-18.17c-9.16,13.95-22.47,20.92-39.94,20.92-14.79,0-27.4-5.39-37.82-16.17-10.43-10.78-15.64-23.91-15.64-39.41s5.21-28.63,15.64-39.41c10.42-10.78,23.03-16.17,37.82-16.17,17.47,0,30.78,6.97,39.94,20.92V2.75ZM224.83,135.66c10.7,0,19.65-3.63,26.84-10.88,7.19-7.25,10.78-16.24,10.78-26.94s-3.59-19.68-10.78-26.94c-7.18-7.25-16.13-10.88-26.84-10.88s-19.44,3.63-26.63,10.88c-7.18,7.26-10.78,16.24-10.78,26.94s3.59,19.69,10.78,26.94c7.19,7.26,16.06,10.88,26.63,10.88Z"/>
      <path d="M382.47,45.01h19.65l-43.11,112.21c-4.51,11.97-10.81,21.09-18.91,27.37-8.1,6.27-17.43,9.05-28,8.35v-17.12c12.91.98,22.38-6.21,28.41-21.6l2.02-3.97-46.07-105.23h19.65l35.23,81,31.12-81Z"/>
      <path d="M426.85,73.22c0,4,2.07,7.2,6.22,9.61,4.15,2.41,9.09,4.46,14.83,6.14,5.74,1.69,11.51,3.38,17.32,5.09,5.81,1.71,10.72,4.9,14.75,9.59,4.03,4.69,6.04,10.71,6.04,18.06,0,9.58-3.7,17.26-11.09,23.03-7.4,5.78-16.87,8.66-28.42,8.66-10.29,0-19.09-2.26-26.41-6.76-7.33-4.51-12.54-10.49-15.64-17.96l15.85-9.09c1.69,5.07,4.86,9.09,9.51,12.05,4.65,2.96,10.21,4.44,16.69,4.44,6.06,0,11.06-1.16,15-3.48,3.94-2.32,5.92-5.94,5.92-10.87,0-4.08-2.05-7.35-6.14-9.81-4.09-2.46-9.01-4.55-14.75-6.28-5.74-1.72-11.52-3.46-17.32-5.2-5.81-1.74-10.75-4.87-14.84-9.38-4.09-4.51-6.13-10.28-6.13-17.33,0-9.16,3.56-16.69,10.67-22.61,7.11-5.92,16.02-8.88,26.73-8.88,8.59,0,16.23,1.94,22.93,5.81,6.69,3.88,11.73,9.27,15.11,16.17l-15.43,8.66c-3.8-9.01-11.34-13.52-22.61-13.52-5.21,0-9.65,1.21-13.31,3.62-3.67,2.41-5.49,5.82-5.49,10.23Z"/>
      <path d="M516.03,25.78c-3.52,0-6.48-1.2-8.87-3.59-2.4-2.39-3.59-5.28-3.59-8.66s1.2-6.3,3.59-8.77c2.39-2.46,5.35-3.7,8.87-3.7s6.27,1.23,8.66,3.7c2.39,2.47,3.59,5.39,3.59,8.77s-1.2,6.27-3.59,8.66-5.28,3.59-8.66,3.59ZM506.73,150.67V45.01h18.38v105.66h-18.38Z"/>
      <path d="M640.7,45.01h18.38v105.66h-18.38v-18.17c-9.16,13.95-22.47,20.92-39.94,20.92-14.79,0-27.4-5.39-37.82-16.17-10.43-10.78-15.64-23.91-15.64-39.41s5.21-28.63,15.64-39.41c10.42-10.78,23.03-16.17,37.82-16.17,17.47,0,30.78,6.97,39.94,20.92v-18.17ZM603.08,135.66c10.7,0,19.65-3.63,26.84-10.88,7.19-7.25,10.78-16.24,10.78-26.94s-3.59-19.68-10.78-26.94c-7.18-7.25-16.13-10.88-26.84-10.88s-19.44,3.63-26.63,10.88c-7.18,7.26-10.78,16.24-10.78,26.94s3.59,19.69,10.78,26.94c7.19,7.26,16.06,10.88,26.63,10.88Z"/>
    </g>
  </g>
</svg>